<svg id="Layer_1" height="512" viewBox="0 0 512 512" width="512" xmlns="http://www.w3.org/2000/svg" data-name="Layer 1"><path d="m257.66 84.88c-.75-.02-1.5-.03-2.26-.03-21.01 0-38.05 7.93-38.05 17.71s17.04 17.71 38.05 17.71 38.06-7.93 38.06-17.71c0-9.43-15.83-17.13-35.8-17.68zm-91.1 362.52-.41.21a90.453 90.453 0 0 1 -120.96-85.1c0-45 35.8-71.63 53.32-89.21 21.66-21.74 28.71-55.05 31.08-80.4 6.03-64.44 50.1-128.64 125.84-128.64h1.14c2.37 0 4.7.06 7.01.19h.01c71.44 3.83 112.98 66.03 118.82 128.45 2.37 25.35 9.42 58.55 31.08 80.29 17.52 17.58 53.32 44.26 53.32 89.26a90.428 90.428 0 0 1 -90.43 90.43 87.242 87.242 0 0 1 -30.01-5.21 102.323 102.323 0 0 1 -179.81-.27z" fill="#fb6771"/><path d="m148.262 394.956c-2.758-56.834 31.368-92.2 47.789-115.256 20.3-28.508 25.3-70.92 26.116-103.052 1.024-40.331 11.321-81.032 30.586-112.353-74.1 1.5-117.2 64.929-123.163 128.605-2.37 25.35-9.42 58.66-31.08 80.4-17.52 17.58-53.32 44.21-53.32 89.21a90.424 90.424 0 0 0 116.69 86.5 138.2 138.2 0 0 1 -13.618-54.054z" fill="#e56572"/><path d="m413.49 273.19c-21.66-21.74-28.71-54.94-31.08-80.29-5.84-62.42-47.38-124.62-118.82-128.45h-.01c-.664-.037-1.333-.057-2-.083 30.8 32.855 44.669 85.23 42.437 135.755-1.346 30.457.807 70.826 19.133 99.334 14.825 23.054 46.466 59.162 39.9 112.716a127.453 127.453 0 0 1 -10.5 37.457 87.1 87.1 0 0 0 23.828 3.251 90.428 90.428 0 0 0 90.43-90.43c.002-45-35.798-71.68-53.318-89.26z" fill="#fc838f"/><path d="m257.66 84.88c19.97.55 35.8 8.25 35.8 17.68 0 9.78-17.04 17.71-38.06 17.71s-38.05-7.93-38.05-17.71 17.04-17.71 38.05-17.71c.76 0 1.51.01 2.26.03z" fill="#c64e62"/><path d="m256.5 105.17a6 6 0 0 1 -6-6 94.678 94.678 0 0 1 7.561-37.07c.046-.109.1-.215.147-.32a94.057 94.057 0 0 1 86.462-56.78 6 6 0 0 1 0 12 82.074 82.074 0 0 0 -75.564 49.811c-.041.1-.085.191-.131.285a82.695 82.695 0 0 0 -6.475 32.074 6 6 0 0 1 -6 6z" fill="#63591a"/><g opacity=".6"><path d="m162.705 226.4a6.006 6.006 0 0 1 -5.849-7.363 199.417 199.417 0 0 0 4.22-26.693 168.443 168.443 0 0 1 23.339-71.585 6 6 0 1 1 10.25 6.24 156.358 156.358 0 0 0 -21.641 66.458 211.533 211.533 0 0 1 -4.481 28.3 6 6 0 0 1 -5.838 4.643z" fill="#e9e9e9"/></g><g opacity=".6"><path d="m151.042 259.582a6 6 0 0 1 -2.195-11.582c3.295-1.293 4.574-8.373 4.667-10.805a6 6 0 1 1 11.992.46c-.067 1.735-.977 17.079-12.273 21.515a5.98 5.98 0 0 1 -2.191.412z" fill="#e9e9e9"/></g></svg>